<svg width="258" height="56" viewBox="0 0 258 56" fill="none" xmlns="http://www.w3.org/2000/svg">
<path d="M62.3772 12.4863V44.4896L36.4851 12.4863H31.4333V55.4151H37.5933V23.3975L63.4855 55.4007H68.5372V12.4863H62.3772Z" fill="#FBF8F4"/>
<path d="M139.665 12.4863H134.613L116.853 42.6567L98.8621 12.4863H93.8103V55.4151H99.7256V24.3139L115.327 50.1886H118.162L133.749 24.1278L133.807 55.4007H139.722L139.665 12.4863Z" fill="#FBF8F4"/>
<path d="M184.109 12.4863H178.006L158.461 55.4008H164.809L169.558 44.6757H192.485L197.235 55.4008H203.711L184.109 12.4863ZM171.717 39.7643L181.029 18.7294L190.341 39.7643H171.717Z" fill="#FBF8F4"/>
<path d="M247.767 40.9957C250.804 39.9361 253.15 38.2321 254.79 35.9124C256.431 33.5784 257.252 30.7575 257.252 27.4498C257.252 22.7818 255.654 19.1304 252.444 16.467C249.235 13.818 244.845 12.4863 239.261 12.4863H222.436V55.4151H228.596V42.356H239.261C239.923 42.356 240.815 42.3131 241.967 42.2271L251.279 55.4151H258L247.767 40.9957ZM239.074 37.1295H228.596V17.813H239.074C242.974 17.813 245.953 18.6435 248.012 20.2902C250.07 21.9512 251.092 24.3282 251.092 27.4355C251.092 30.5427 250.07 32.934 248.012 34.6094C245.953 36.299 242.989 37.1295 239.074 37.1295Z" fill="#FBF8F4"/>
<path d="M6.15999 0H0V6.12859H6.15999V0Z" fill="#FBF8F4"/>
<path d="M6.15999 12.5292H0V55.4007H6.15999V12.5292Z" fill="#FBF8F4"/>
<path d="M257.957 0H0V6.12859H257.957V0Z" fill="#FBF8F4"/>
</svg>
