<?xml version="1.0" encoding="iso-8859-1"?>
<!-- Uploaded to: SVG Repo, www.svgrepo.com, Generator: SVG Repo Mixer Tools -->
<!DOCTYPE svg PUBLIC "-//W3C//DTD SVG 1.1//EN" "http://www.w3.org/Graphics/SVG/1.1/DTD/svg11.dtd">
<svg fill="#000000" height="800px" width="800px" version="1.1" id="Capa_1" xmlns="http://www.w3.org/2000/svg" xmlns:xlink="http://www.w3.org/1999/xlink" 
	 viewBox="0 0 456.795 456.795" xml:space="preserve">
<g>
	<path d="M456.795,89.255c0-1.429-0.763-2.75-2-3.464l-128.673-74.29c-1.238-0.715-2.762-0.715-4,0L151.396,110.08
		c-1.237,0.714-2,2.035-2,3.464v45.248L83.48,196.23c-0.605,0.344-1.095,0.833-1.444,1.409l-0.03-0.018l-41.021,69.815
		L1.172,307.251C0.422,308.002,0,309.019,0,310.08v56.497c0,1.429,0.762,2.749,1.999,3.463l129.005,74.537
		c0.619,0.358,1.31,0.537,2.001,0.537c0.69,0,1.381-0.179,1.999-0.536c0.256-0.148,28.741-16.499,28.741-16.499
		c1.656,6.542,5.211,11.838,10.618,14.96c3.227,1.863,6.843,2.791,10.694,2.791c4.608,0,9.554-1.33,14.565-3.975
		c8.598-4.539,16.497-12.52,22.242-22.471c5.486-9.501,8.426-19.801,8.362-29.168l81.505-46.429
		c1.584,6.829,5.187,12.366,10.764,15.586c3.298,1.904,6.949,2.808,10.771,2.808c12.674,0,27.201-9.959,36.73-26.464
		c5.65-9.785,8.6-20.417,8.348-30.005l39.344-24.637c1.168-0.731,1.877-2.012,1.877-3.39v-15.996l35.225-20.308
		c1.238-0.714,2.002-2.035,2.002-3.465V89.284C456.793,89.275,456.795,89.265,456.795,89.255z M324.122,19.584l120.673,69.671
		l-162.737,93.948l-120.662-69.66L324.122,19.584z M310.807,335.106l-24.682,14.06v-10.539l26.149-15.075
		C311.31,327.536,310.823,331.423,310.807,335.106z M86.868,205.142l122.103,70.492l-5.856,9.967L81.037,215.066L86.868,205.142z
		 M199.061,292.498l-27.319,46.494L49.665,268.456l27.318-46.493L199.061,292.498z M217.368,277.133l60.69-34.46v36.936
		l-94.052,54.303L217.368,277.133z M157.396,120.472l120.662,69.66v38.665l-120.662-69.672V120.472z M153.104,165.885l120.971,69.85
		l-59.598,33.84L93.506,199.737L153.104,165.885z M44.833,274.903l121.833,70.394l-34.643,34.643L10.19,309.546L44.833,274.903z
		 M8,317.52l7.083,4.092v27.082L8,344.602V317.52z M23.083,326.235l90,52.001v27.081l-90-52.001V326.235z M121.083,382.858
		l7.922,4.577v27.081l-7.922-4.577V382.858z M8,364.268v-10.427l121.005,69.915v10.427L8,364.268z M214.937,415.384
		c-5.002,8.664-11.767,15.552-19.049,19.396c-6.68,3.527-12.902,4-17.525,1.332c-10.004-5.776-10.158-25.027-0.337-42.038
		c5.002-8.664,11.768-15.552,19.05-19.396c3.826-2.02,7.502-3.038,10.813-3.038c2.471,0,4.737,0.566,6.712,1.707
		c4.621,2.667,7.324,8.294,7.61,15.842C222.521,397.417,219.938,406.72,214.937,415.384z M218.6,366.418
		c-7.088-4.093-16.06-3.671-25.259,1.184c-8.599,4.539-16.497,12.519-22.243,22.471c-5.763,9.982-8.534,20.346-8.427,29.41
		l-25.666,14.623v-47.832l38.448-38.449l102.604-58.977v64.877l-48.833,27.856C227.568,374.751,223.92,369.49,218.6,366.418z
		 M363.069,331.717c-7.865,13.623-20.172,22.424-29.9,22.422c-2.42,0-4.682-0.545-6.674-1.695
		c-10.004-5.776-10.158-25.027-0.337-42.038c5.002-8.664,11.768-15.552,19.05-19.396c3.826-2.02,7.502-3.038,10.813-3.038
		c2.471,0,4.737,0.566,6.712,1.707c4.621,2.667,7.324,8.294,7.61,15.842C370.654,313.75,368.071,323.053,363.069,331.717z
		 M411.566,275.469l-34.446,21.57c-0.889-3.253-2.244-6.128-4.031-8.555l38.477-22.183V275.469z M366.868,282.836
		c-0.046-0.027-0.089-0.058-0.136-0.085c-7.089-4.093-16.061-3.671-25.259,1.184c-8.599,4.539-16.497,12.519-22.243,22.471
		c-1.065,1.845-2.021,3.703-2.882,5.563l-30.223,17.424v-93.629h-0.001c0-0.234-0.027-0.462-0.066-0.688v-44.945l162.735-93.947
		v139.42L366.868,282.836z"/>
	<path d="M355.728,301.813c-1.929-1.113-6.052-2.341-12.002,1.97c-3.498,2.536-6.917,6.516-9.626,11.208
		c-2.71,4.693-4.447,9.644-4.894,13.94c-0.759,7.306,2.365,10.265,4.295,11.379c0.896,0.518,2.266,1.059,4.071,1.059
		c2.082,0,4.745-0.721,7.931-3.029c3.498-2.535,6.916-6.516,9.625-11.208C360.65,317.567,362.63,305.798,355.728,301.813z
		 M348.2,323.132c-4.438,7.688-9.457,10.429-10.692,10.238c-0.801-1.007-0.917-6.695,3.52-14.379
		c4.436-7.685,9.42-10.443,10.693-10.238C352.521,309.761,352.636,315.449,348.2,323.132z"/>
	<path d="M207.595,385.48c-1.929-1.113-6.052-2.341-12.002,1.97c-3.498,2.536-6.917,6.516-9.626,11.208
		c-2.71,4.693-4.447,9.644-4.894,13.94c-0.759,7.306,2.365,10.265,4.295,11.379c0.896,0.518,2.266,1.059,4.071,1.059
		c2.082,0,4.745-0.721,7.931-3.029c3.498-2.535,6.916-6.516,9.625-11.208C212.518,401.234,214.497,389.465,207.595,385.48z
		 M200.067,406.799c-4.438,7.688-9.465,10.433-10.692,10.238c-0.801-1.007-0.917-6.695,3.52-14.379
		c4.436-7.685,9.433-10.444,10.693-10.238C204.388,393.428,204.503,399.116,200.067,406.799z"/>
</g>
</svg>